<!DOCTYPE svg PUBLIC "-//W3C//DTD SVG 1.1//EN" "http://www.w3.org/Graphics/SVG/1.1/DTD/svg11.dtd">
<!-- Uploaded to: SVG Repo, www.svgrepo.com, Transformed by: SVG Repo Mixer Tools -->
<svg fill="#ffffff" width="800px" height="800px" viewBox="-100 -100 1200.00 1200.00" xmlns="http://www.w3.org/2000/svg" stroke="#ffffff">
<g id="SVGRepo_bgCarrier" stroke-width="0">
<rect x="-100" y="-100" width="1200.00" height="1200.00" rx="600" fill="#000000" strokewidth="0"/>
</g>
<g id="SVGRepo_tracerCarrier" stroke-linecap="round" stroke-linejoin="round"/>
<g id="SVGRepo_iconCarrier">
<path d="M493.556 -.063c-265.602 0 -482.306 209.741 -493.5 472.594 -.765 18.027 13 19.031 13 19.031l83.813 0c16.291 0 19.146 -9.297 19.531 -17.625 9.228 -199.317 175.315 -357.688 377.156 -357.688 107.739 0 204.915 45.163 273.719 117.563l-58.813 56.875c-10.23 12.319 -10.043 27.275 5.063 31.5l247.125 49.75c21.15 5.281 46.288 -10.747 37.656 -43.656l-58.375 -227.563c-1.482 -8.615 -15.924 -22.024 -29.406 -12.406l-64.094 60.031c-89.659 -91.567 -214.627 -148.406 -352.875 -148.406zm409.625 508.5c-16.291 0 -19.146 9.297 -19.531 17.625 -9.228 199.317 -175.315 357.688 -377.156 357.688 -107.739 0 -204.915 -45.132 -273.719 -117.531l58.813 -56.906c10.229 -12.319 10.043 -27.275 -5.063 -31.5l-247.125 -49.75c-21.15 -5.281 -46.288 10.747 -37.656 43.656l58.375 227.563c1.482 8.615 15.924 22.024 29.406 12.406l64.094 -60.031c89.659 91.567 214.627 148.406 352.875 148.406 265.602 0 482.306 -209.741 493.5 -472.594 .765 -18.027 -13 -19.031 -13 -19.031l-83.813 0z"/>
</g>
</svg>